{"title":"In Flames - Clayman - Custom Remaster by MC Lurken 24-bit 96kHz","uid":7722729,"size":1313375875,"categoryP":"audio","categoryS":"flac","magnet":"?xt=urn:btih:9beefee1b03c51344de914bbaccc9596978bbaa7&amp;dn=In+Flames+-+Clayman+-+Custom+Remaster+by+MC+Lurken+24-bit+96kHz+&amp;tr=udp%3A%2F%2Ftracker.openbittorrent.com%3A80&amp;tr=udp%3A%2F%2Fopen.demonii.com%3A1337&amp;tr=udp%3A%2F%2Ftracker.coppersurfer.tk%3A6969&amp;tr=udp%3A%2F%2Fexodus.desync.com%3A6969","seeders":2,"leechers":1,"uploader":"beavis39","files":-1,"time":1350117673,"description":"In Flames - Clayman - Custom Remaster by MC Lurken (a.k.a. Beavis39)\n\n\n\n1 - Bullet Ride\n2 - Pinball Map\n3 - Only For The Weak\n4 - ...As The Future Repeats Today\n5 - Square Nothing\n6 - Clayman\n7 - Satellites And Astronauts\n8 - Brush The Dust Away\n9 - Swim\n10 - Suburban Me\n11 - Another Day In Quicksand\n12 - Strong And Smart\n13 - World Of Promises\n\n\n\nSetup:\n-HP G72-250US\n-Intel Core i3 M350 2.27GHz\n-8Gb PC3-10700 RAM\n-Win7 64-bit SP1\n-SB X-Fi Surround 5.1\n\n\nProcess:\n-Original 16-bit/44.1kHz files joined in Wavelab 6\n-Remove DC offset and save as 64-bit float/44.1kHz\n-Resample to 384kHz in Wavelab w/crystal resampler ultra(slow) relax background priority\n-Create new 64-bit/384kHz master recording in Wavelab\n\n\nAs reported in Wavelab:\n-Original 16-bit/44.1kHz: Apparent Bit Resolution = 16, Peak = -0.092db\n-With DC Offset Removed: Apparent Bit Resolution = 19, Peak = -0.092db\n-64-bit/384kHz Recording: Apparent Bit Resolution = 39, Peak = 0.911db\n\n\n-Resample new 64-bit/384kHz master recording to 64-bit/96kHz in Wavelab w/crystal resampler ultra(slow) relax background priority\n-Apply MBIT+ 24-bit Dither in Wavelab w/Izotope Ozone 5 VST Plugin\n-Flac encode level 0 with Trader's Little Helper\n-Tag and pic with xrecode II\n\n\n\nfoobar2000 1.1.14a / Dynamic Range Meter 1.1.1\nlog date: 2012-10-13 01:02:58\n\n--------------------------------------------------------------------------------\nAnalyzed: ? / ?\n--------------------------------------------------------------------------------\n\nDR         Peak         RMS     Duration Track\n--------------------------------------------------------------------------------\nDR6        0.00 dB    -7.23 dB      4:42 ?-01 - Bullet Ride\nDR6        0.00 dB    -6.60 dB      4:07 ?-02 - Pinball Map\nDR6        0.00 dB    -7.09 dB      4:55 ?-03 - Only For The Weak\nDR6        0.00 dB    -6.75 dB      3:28 ?-04 - ...As The Future Repeats Today\nDR6        0.00 dB    -7.21 dB      3:56 ?-05 - Square Nothing\nDR6        0.00 dB    -6.40 dB      3:27 ?-06 - Clayman\nDR6       -0.07 dB    -7.89 dB      5:01 ?-07 - Satellites And Astronauts\nDR6        0.00 dB    -6.60 dB      3:15 ?-08 - Brush The Dust Away\nDR6        0.00 dB    -6.82 dB      3:13 ?-09 - Swim\nDR6        0.00 dB    -7.02 dB      3:34 ?-10 - Suburban Me\nDR6        0.00 dB    -6.41 dB      3:48 ?-11 - Another Day In Quicksand\nDR6       -0.30 dB    -6.82 dB      2:23 ?-12 - Strong And Smart\nDR6       -0.29 dB    -7.84 dB      4:05 ?-13 - World Of Promises\n--------------------------------------------------------------------------------\n\nNumber of tracks:  13\nOfficial DR value: DR6\n\nSamplerate:        96000 Hz\nChannels:          2\nBits per sample:   24\nBitrate:           4608 kbps\nCodec:             PCM\n\n\n\nenjoy :)","torrent":{"xt":"urn:btih:9beefee1b03c51344de914bbaccc9596978bbaa7","amp;dn":"In+Flames+-+Clayman+-+Custom+Remaster+by+MC+Lurken+24-bit+96kHz+","amp;tr":["udp%3A%2F%2Ftracker.openbittorrent.com%3A80","udp%3A%2F%2Fopen.demonii.com%3A1337","udp%3A%2F%2Ftracker.coppersurfer.tk%3A6969","udp%3A%2F%2Fexodus.desync.com%3A6969"],"infoHash":"9beefee1b03c51344de914bbaccc9596978bbaa7","infoHashBuffer":{"type":"Buffer","data":[155,238,254,225,176,60,81,52,77,233,20,187,172,204,149,150,151,139,186,167]},"announce":[],"urlList":[]}}